<?xml version="1.0" encoding="utf-8"?>
<!-- Generator: Adobe Illustrator 27.2.0, SVG Export Plug-In . SVG Version: 6.00 Build 0)  -->
<svg version="1.1" id="Layer_2_00000080901917458397572370000008857953416247018399_"
	 xmlns="http://www.w3.org/2000/svg" xmlns:xlink="http://www.w3.org/1999/xlink" x="0px" y="0px" viewBox="0 0 216.2 91.8"
	 style="enable-background:new 0 0 216.2 91.8;" xml:space="preserve">
<style type="text/css">
	.st0{fill:#37AF8D;stroke:#111111;stroke-width:0.84;stroke-miterlimit:10;}
</style>
<g id="Layer_1-2">
	<g>
		
			<rect x="27.9" y="-26.6" transform="matrix(0.9999 -1.431109e-02 1.431109e-02 0.9999 0.1892 0.8117)" class="st0" width="57.8" height="27.6"/>
		<path class="st0" d="M-36.1-14.4C-37.6-4.3-29.6,5-19.1,4.8l167-2.4c9.5-0.1,18.1,3.8,15.4-5.4l0,0c2.3-4.5,2.6-9.9,0.8-14.7
			c-6.7-18-16-28.2-50.9-28.2c-1.7,0-3.3-1-3.8-2.7c-2.1-7.1-15.7-28.9-38.4-29.5c-27.2-0.8-73.1-5.7-97.3,39.9l-9.4,22.5
			C-35.8-15.3-36-14.8-36.1-14.4L-36.1-14.4z"/>
		<path class="st0" d="M19.1,0.2c-0.1,3,1.9,5.3,5.5,5.4l4.3-0.1c3.7-0.1,6.6-3.1,6.6-6.8v-0.1C35.2-22.1,18.1-38.6-2.7-38.1
			c-10.9,0.3-20.9,6.2-27.7,14.8c-2,2.6-3.6,5.1-4.9,7.6C-40.5-5.6-32.9,6.4-21.6,6.2l0,0c-0.6-2-1.1-4-1.1-6.1
			C-22.8-11-14.4-20.1-3.5-21c6.4-0.5,12.4,2.5,16.7,7.3C17.9-8.5,19.2-3.9,19.1,0.2L19.1,0.2z"/>
		<path class="st0" d="M147.9,1c-0.1,3,1.9,5.3,5.6,5.4l4.3-0.1c3.7-0.1,6.6-3.1,6.6-6.8v-0.1c-0.3-20.8-17.5-37.3-38.2-36.7
			c-11,0.2-20.9,6.2-27.7,14.7c-2,2.6-3.6,5.1-4.9,7.6C88.4-4.9,96,7.1,107.2,7l0,0c-0.6-2-1.1-4-1.1-6.1
			c-0.1-11.1,8.3-20.2,19.2-21.1c6.4-0.5,12.4,2.5,16.7,7.3C146.7-7.7,148-3.1,147.9,1L147.9,1z"/>
	</g>
</g>
</svg>
