<?xml version="1.0" encoding="utf-8"?>
<!-- Generator: Adobe Illustrator 27.2.0, SVG Export Plug-In . SVG Version: 6.00 Build 0)  -->
<svg version="1.1" id="Layer_2_00000080901917458397572370000008857953416247018399_"
	 xmlns="http://www.w3.org/2000/svg" xmlns:xlink="http://www.w3.org/1999/xlink" x="0px" y="0px" viewBox="0 0 216.2 91.8"
	 enable-background="new 0 0 216.2 91.8" xml:space="preserve">
<g id="Layer_1-2">
	<g>
		<circle fill="#BCBCBC" stroke="#000000" stroke-width="0.84" stroke-miterlimit="10" cx="104.5" cy="-43.1" r="5.2"/>
		<path fill="#939393" stroke="#000000" stroke-width="0.84" stroke-miterlimit="10" d="M96.8-46.7c-9.9,0.1-31.9,0.4-42,0.4
			c-3.2,0-5.5-2.2-5.1-5.9l2-17.8c1-5.6,14.2-4.6,14.2-4.6C92.4-74.9,96-61.3,98.4-53.3C99.4-49.9,99.8-46.7,96.8-46.7L96.8-46.7z"
			/>
		<path fill="#939393" stroke="#000000" stroke-width="0.84" stroke-miterlimit="10" d="M44.9-70.4c0.5-2-1.4-3.7-3.9-3.7
			C8.6-73-3.3-57.7-8.7-49.8c-1.3,2.1,0.5,4.5,3.4,4.5l43.6-0.6c1.7-0.1,3.2-1.1,3.6-2.5L44.9-70.4L44.9-70.4z"/>
		
			<ellipse transform="matrix(0.9243 -0.3817 0.3817 0.9243 20.925 59.9217)" fill="#FFFFFF" stroke="#000000" stroke-width="0.84" stroke-miterlimit="10.0004" cx="161.5" cy="-22.8" rx="2.4" ry="7.8"/>
		<path fill="#BCBCBC" stroke="#000000" stroke-width="0.84" stroke-miterlimit="10" d="M101.4-56.1c1.9,0,3.5,1.5,3.5,3.4l0.1,6.5
			c0,2.1-1.6,3.8-3.7,3.8l-4.4,0.1L96.7-56L101.4-56.1L101.4-56.1z"/>
		
			<ellipse transform="matrix(0.8898 -0.4563 0.4563 0.8898 36.3485 22.7092)" fill="#BCBCBC" cx="65.2" cy="-63.9" rx="14.8" ry="1.3"/>
		
			<ellipse transform="matrix(0.8898 -0.4563 0.4563 0.8898 35.9126 25.7108)" fill="#BCBCBC" cx="71.2" cy="-61.5" rx="14.8" ry="1.3"/>
		
			<ellipse transform="matrix(0.8898 -0.4563 0.4563 0.8898 27.7098 -2.0672)" fill="#BCBCBC" cx="9.6" cy="-58.4" rx="14.8" ry="1.3"/>
		
			<ellipse transform="matrix(0.8898 -0.4563 0.4563 0.8898 27.2819 0.9828)" fill="#BCBCBC" cx="15.7" cy="-56" rx="14.8" ry="1.3"/>
	</g>
</g>
<path fill="none" stroke="#111111" stroke-width="0.8442" stroke-miterlimit="10" d="M48.1,3.4c-7.3-50.1,1.2-77.7,1.2-77.7"/>
</svg>
