<?xml version="1.0" encoding="utf-8"?>
<!-- Generator: Adobe Illustrator 27.3.1, SVG Export Plug-In . SVG Version: 6.00 Build 0)  -->
<svg version="1.1" id="Layer_1" xmlns="http://www.w3.org/2000/svg" xmlns:xlink="http://www.w3.org/1999/xlink" x="0px" y="0px"
	 viewBox="0 0 612 792" style="enable-background:new 0 0 612 792;" xml:space="preserve">
<path style="fill:#70808E;" d="M-374.8-78.8c7.3-8.1,7.8-20.3,1.1-29l-89.2-105.6l120.5,87.2c23.4,17.4,53.2,23.6,81.9,22.5
	c21.7-0.7,35.8-1.2,42.1-1.5c1.3,0.3,6.9-7.2,9.1-40.2l0,0c1.2-19.9,1-29.9,1-36.4c13.4,3.2,27.7,26.1,32.2,33.8
	c7.6,12.9,15.8,30.3,15.8,40.6c0,4,1.2,8.3,3.4,13c6.4,14.2,21,22,35.5,26.9c29.2,11.7,59.3,23.9,83,35.2C-9.2-18.2,3.2-8.9,3.3-1
	c0.1,21-20.5,23.4-40.5,25.7c-6.8,0.8-13.8,1.6-20.3,3.1l19,13.3c2.5,1.9,3.4,5.2,2.2,8.2c-4,15-91.5-18.5-99.8-21.1l-1.6,11.8
	l-19.7,24.4l-30.1-49.1l-8.6,9.9L-269,53.7l28.8-80.8l-84.6-52.2l-79.4,39.1C-401.6-43.5-377.2-76.9-374.8-78.8z"/>
<g>
	<polygon style="fill:#ACBBCC;" points="-138.3,19.1 -141,38.3 -157.5,58.7 -198,-7.4 	"/>
	<path style="fill:#44515E;" d="M-200.5-9.6l63.3,28.1l-2.8,20.2l-17.6,21.7L-200.5-9.6z M-139.4,19.7l-56-24.9l38.1,62.1l15.5-19.1
		L-139.4,19.7z"/>
</g>
<g>
	<path style="fill:#EDEDED;" d="M-186.8,0.8c28.5,11.2,72.1,44.7,97.3,9.7L-175-18.6L-186.8,0.8z"/>
	<path style="fill:#232323;" d="M-187.6,1l12.4-20.2l86.5,29.4C-96.5,21-109.1,27.1-121.8,27C-134.6,28.5-175.6,5.4-187.6,1z
		 M-174.8-18l-11.3,18.6c27.8,10.9,70.8,43.8,95.8,10.2L-174.8-18z"/>
</g>
<g>
	<path style="fill:#DEEBF9;" d="M-81.4,14.5l40.8,28.6c3,2.5,1.1,7.4-2.8,7.2c-60.9-10.4-123.5-32-166-67.9l-0.3-1.3l103.5-33.9
		l43.5,28.7C-79-14.3-86.1,0.5-81.4,14.5z"/>
	<path style="fill:#44515E;" d="M-81.4,14.5C-87-1.4-76.2-16.5-62.9-24.4l0,0.7c-14.6-9.4-29.1-19-43.7-28.4l0.6,0.1
		c-29,9.7-74.1,24.4-103.5,34.1l0.6-1.2l0.3,1.3l-0.3-0.5c24.1,20.9,53.3,35,83,45.9c6.7,2,97.2,34.7,84.8,15.8
		C-40.8,43.6-81.5,14.5-81.4,14.5L-81.4,14.5z M-81.4,14.5c0.4,0.8,45.4,29.6,42.6,31.1c0,9.3-13,3.5-18.4,3.2
		C-111.4,36.6-167.3,19.6-210.3-17c-0.2-0.7-0.5-1.9-0.6-2.5c0,0,0.9-0.3,0.9-0.3c29.4-9.5,74.8-24.4,103.9-33.7
		C-91.4-43.7-76.7-33.9-62-24c0,0-0.5,0.3-0.5,0.3C-75.8-16.1-86.7-1.4-81.4,14.5L-81.4,14.5z"/>
</g>
<g>
	<path style="fill:#ACBBCC;" d="M-373.1-77.3c8.2-9.1,8.9-23,1.2-32.9l-73.4-86.8l100.6,72.8c24,17.8,54.3,24.2,83.8,23.1
		c43.9-4.4,49.4,13.3,53.8-41.1l10.1,2.8l-9.8-7.8c1-16.1,0.9-30.5,0.9-30.5c15,6.2,42,52.8,42,69.9c0.8,17.3,14.4,32,30,38.3
		c90.5,35.5,206.6,79.9,73.2,94.3c-23.8,6-59.6-10.3-78.5-18.7l0.8-18.9l8.3-12.8l-10.7,12.1l-2.2,17.9l-6-3.5l0.7-17.1l8.3-12.8
		l-10.7,12.1l-1.9,15.8l-5.4-3.1l0.7-15.4l8.3-12.8l-10.7,12.1l-1.7,14.1l-8.2-4.7l-28.7,33l-66.1,25.9l19.2-54.1l23.6-0.6l-22.3-3
		l6.9-19.3l-88.1-54.3l-69.7,34.3C-392-52.3-375.9-74.6-373.1-77.3z"/>
	<path style="fill:#44515E;" d="M-445.2-197c0,0,100.6,72.8,100.6,72.8c22.4,16.6,50.5,23.4,78.1,23.2c15-0.3,38.7-1.3,47.8-1.6
		c7-0.3,10.2-20.3,11.7-39.6l10.1,2.8l-9.8-7.8c1-16.1,0.9-30.5,0.9-30.5c15,6.2,42,52.8,42,69.9c0,4.9,1.5,9.8,3.8,14.3
		c5.4,11,14.9,19.4,26.3,24C-74.5-45.4-0.2-16.5-0.1-1.4C0,23.9-34.2,18.2-60.6,24.9c-25.5,5.9-59.4-10.5-78.5-18.7l0.8-18.9
		l8.3-12.8l-10.7,12.1l-2.2,17.9l-6-3.5l0.7-17.1l8.3-12.8l-10.7,12.1l-1.9,15.8l-5.4-3.1l0.7-15.4l8.3-12.8l-10.7,12.1l-1.7,14.1
		l-8.2-4.7l-28.7,33l-66.1,25.9l19.2-54.1l23.6-0.6l-22.3-3l6.9-19.3l-88.1-54.3l-69.7,34.3c2.6-3.5,19-25.7,21.7-28.5
		c8.2-9.1,8.9-23,1.2-32.9C-371.8-110.1-445.2-197-445.2-197 M-457.3-208.2c3.8,4.5,77.6,91.8,83.9,99.3c9,11.3,4.7,25.7-5.1,35
		c-3.5,4.7-19.7,26.3-22.9,30.6c1.4-0.7,72.3-35.6,76.1-37.5l85.7,52.9c-0.4,1.2-7,19.6-7.1,20.1l0,0c-1.1,3-20.4,57.4-21.2,59.5
		l4.1-1.6c0.5-0.2,66.2-25.9,66.6-26.1c0.3-0.3,27.6-31.8,28-32.1c1.8,1,7.6,4.4,9.4,5.3l0,0c2.2,1.2,6.7,3.8,8.9,5.1
		c2.3,1.3,7.4,4.2,9.7,5.5l0.2-1.3l0,1.1c38.5,17.3,58.4,25.8,103.4,15.8C-20.1,21.2,2,19.5,1.9-1.4C-6.9-27-98.5-55-133-71.2
		c-15.1-6-28.1-20.6-28.8-36.5c-1.9-19.7-23.4-62.9-46-72.9c0,4.3,0.2,15.8-1,34.4c0.5,0.4,2.3,1.9,2.9,2.3c-0.5-0.1-2.5-0.7-3-0.8
		c-2.2,32.7-8.1,41.2-10,40.2c-9,0.3-32.6,1.3-47.7,1.6c-27.1,0.2-54.8-6.5-76.9-22.8C-350.4-130.8-454.5-206.1-457.3-208.2
		L-457.3-208.2z"/>
</g>
<g>
	<polygon style="fill:#DEEBF9;" points="-237,-28.8 -232.5,-42.3 -325.1,-83.1 	"/>
	<path style="fill:#44515E;" d="M-237-28.8c-25.6-15.3-63.4-38-88.6-53.5l0.9-1.7c29.9,13.2,62.8,27.9,92.5,41.6
		C-232.3-42.1-236.9-29.1-237-28.8L-237-28.8z M-237-28.8l4.3-13.6l0.1,0.3c-30.1-12.7-63-27-92.9-40.2l0.9-1.7
		C-299.5-68.5-262.2-44.8-237-28.8L-237-28.8z"/>
</g>
<path style="fill:#44515E;" d="M-57.9-13.1c0.1-5.8-9-5.8-8.9,0C-66.9-7.3-57.8-7.3-57.9-13.1z"/>
<path style="fill:#DEEBF9;" d="M-132.5-65.3c-74.9,13.1-28.3-32.8-42.8-67.9c-0.5-2.2-0.6-3.5,1.2,0.1
	C-157-101.5-179.7-78.9-132.5-65.3z"/>
<path style="fill:#DEEBF9;" d="M-195.9-35.8c0,0,9.3,2.7,7.2,9.4c-3.1,27.2-56.8,60.9-73.6,73.3c41-16,69.6-23.1,94.9-69.7
	C-167.7-27.2-200.6-48-195.9-35.8z"/>
<path style="fill:#DEEBF9;" d="M-28.5-1.6c-0.4,8.7,27.6,8.7,27.3,0C-0.8-10.3-28.9-10.3-28.5-1.6z"/>
</svg>
