<?xml version="1.0" encoding="utf-8"?>
<!-- Generator: Adobe Illustrator 27.3.1, SVG Export Plug-In . SVG Version: 6.00 Build 0)  -->
<svg version="1.1" id="Layer_1" xmlns="http://www.w3.org/2000/svg" xmlns:xlink="http://www.w3.org/1999/xlink" x="0px" y="0px"
	 viewBox="0 0 612 792" style="enable-background:new 0 0 612 792;" xml:space="preserve">
<path style="fill:#70808E;" d="M376.3-75.9c-7.3-8.1-7.8-20.3-1.1-29l89.2-105.6l-120.5,87.2c-23.4,17.4-53.2,23.6-81.9,22.5
	c-21.7-0.7-35.8-1.2-42.1-1.5c-1.3,0.3-6.9-7.2-9.1-40.2l0,0c-1.2-19.9-1-29.9-1-36.4c-13.4,3.2-27.7,26.1-32.2,33.8
	c-7.6,12.9-15.8,30.3-15.8,40.6c0,4-1.2,8.3-3.4,13c-6.4,14.2-21,22-35.5,26.9c-29.2,11.7-59.3,23.9-83,35.2
	C10.7-15.3-1.8-6-1.8,1.9C-2,23,18.7,25.3,38.7,27.6c6.8,0.8,13.8,1.6,20.3,3.1L40,44c-2.5,1.9-3.4,5.2-2.2,8.2
	c4,15,91.5-18.5,99.8-21.1l1.6,11.8l19.7,24.4L189,18.2l8.6,9.9l72.9,28.6l-28.8-80.8l84.6-52.2l79.4,39.1
	C403.1-40.5,378.7-73.9,376.3-75.9z"/>
<g>
	<polygon style="fill:#ACBBCC;" points="139.8,22 142.5,41.2 159,61.7 199.5,-4.4 	"/>
	<path style="fill:#44515E;" d="M159.1,63.4l-17.6-21.7l-2.8-20.2L202-6.6L159.1,63.4z M143.4,40.8l15.5,19.1l38.1-62.1l-56,24.9
		L143.4,40.8z"/>
</g>
<g>
	<path style="fill:#EDEDED;" d="M188.3,3.8C159.9,15,116.2,48.5,91,13.5l85.5-29.1L188.3,3.8z"/>
	<path style="fill:#232323;" d="M123.3,30c-12.8,0-25.3-6-33.1-16.8l86.5-29.4L189.1,4C177,8.4,136.1,31.4,123.3,30z M91.8,13.7
		c25,33.6,68,0.8,95.8-10.2L176.3-15L91.8,13.7z"/>
</g>
<g>
	<path style="fill:#DEEBF9;" d="M82.9,17.4L42.2,46.1c-3,2.5-1.1,7.4,2.8,7.2c60.9-10.4,123.5-32,166-67.9l0.3-1.3L107.7-49.8
		L64.2-21.1C80.5-11.3,87.6,3.4,82.9,17.4z"/>
	<path style="fill:#44515E;" d="M82.9,17.4c0,0-40.6,29.1-40.5,29c-12.3,18.9,78.1-13.8,84.8-15.8c29.8-11,58.9-25,83.1-45.9
		l-0.3,0.5l0.3-1.3L211-15c-29.4-9.7-74.4-24.4-103.5-34.1l0.6-0.1c-14.6,9.5-29.1,19-43.7,28.4l0-0.7C77.7-13.5,88.5,1.5,82.9,17.4
		L82.9,17.4z M82.9,17.4C88.2,1.6,77.3-13.1,64-20.8l-0.5-0.3c14.7-9.9,29.5-19.7,44.2-29.5c29.2,9.3,74.5,24.2,103.9,33.7l0.9,0.3
		c-0.2,0.7-0.5,1.9-0.6,2.5c-43,36.6-98.9,53.6-153.1,65.8c-5.4,0.3-18.4,6.1-18.4-3.2C37.6,47.1,82.6,18.3,82.9,17.4L82.9,17.4z"/>
</g>
<g>
	<path style="fill:#ACBBCC;" d="M374.6-74.3c-8.2-9.1-8.9-23-1.2-32.9l73.4-86.8l-100.6,72.8c-24,17.8-54.3,24.2-83.8,23.1
		c-43.9-4.4-49.4,13.3-53.8-41.1l-10.1,2.8l9.8-7.8c-1-16.1-0.9-30.5-0.9-30.5c-15,6.2-42,52.8-42,69.9c-0.8,17.3-14.4,32-30,38.3
		C44.7-30.9-71.3,13.5,62.1,27.9c23.8,6,59.6-10.3,78.5-18.7l-0.8-18.9l-8.3-12.8l10.7,12.1l2.2,17.9l6-3.5l-0.7-17.1L141.4-26
		l10.7,12.1L154,1.9l5.4-3.1l-0.7-15.4l-8.3-12.8l10.7,12.1l1.7,14.1l8.2-4.7l28.7,33l66.1,25.9L246.7-3l-23.6-0.6l22.3-3l-6.9-19.3
		l88.1-54.3l69.7,34.3C393.5-49.4,377.4-71.6,374.6-74.3z"/>
	<path style="fill:#44515E;" d="M446.7-194l-73.4,86.8c-7.7,9.9-7,23.8,1.2,32.9c2.7,2.7,19.1,24.9,21.7,28.5l-69.7-34.3l-88.1,54.3
		l6.9,19.3l-22.3,3L246.7-3l19.2,54.1l-66.1-25.9l-28.7-33l-8.2,4.7l-1.7-14.1l-10.7-12.1l8.3,12.8l0.7,15.4L154,1.9l-1.9-15.8
		L141.4-26l8.3,12.8l0.7,17.1l-6,3.5l-2.2-17.9l-10.7-12.1l8.3,12.8l0.8,18.9c-19.1,8.2-53.1,24.6-78.5,18.7
		C35.7,21.2,1.5,26.8,1.6,1.5c0.1-15,74.4-44,133.6-67.9c11.4-4.6,20.9-13,26.3-24c2.2-4.5,3.8-9.4,3.8-14.3
		c0-17.1,26.9-63.7,42-69.9c0,0-0.1,14.3,0.9,30.5l-9.8,7.8l10.1-2.8c1.5,19.3,4.7,39.4,11.7,39.6c9.1,0.3,32.8,1.3,47.8,1.6
		c27.6,0.1,55.7-6.6,78.1-23.2C346.1-121.2,446.7-194,446.7-194 M458.8-205.3c-2.8,2.1-106.9,77.4-113.8,82.4
		c-22.1,16.3-49.8,23-76.9,22.8c-15.1-0.3-38.7-1.3-47.7-1.6c-1.9,1-7.8-7.5-10-40.2c-0.5,0.1-2.6,0.7-3,0.8
		c0.6-0.5,2.4-1.9,2.9-2.3c-1.2-18.6-1-30.1-1-34.4c-22.6,10-44.1,53.2-46,72.9c-0.7,15.9-13.7,30.5-28.8,36.5
		C100-52.1,8.4-24-0.4,1.5c-0.1,20.9,22,22.7,39.6,24.7c45.1,9.9,64.9,1.5,103.4-15.8l0-1.1l0.2,1.3c2.3-1.3,7.3-4.2,9.7-5.5
		c2.2-1.2,6.7-3.8,8.9-5.1l0,0c1.7-1,7.5-4.3,9.4-5.3c0.3,0.4,27.7,31.8,28,32.1c0.4,0.2,66.1,25.9,66.6,26.1c0,0,4.1,1.6,4.1,1.6
		c-0.7-2-20.1-56.4-21.2-59.5l0,0c-0.2-0.5-6.7-18.9-7.1-20.1l85.7-52.9c3.9,1.9,74.7,36.8,76.1,37.5c-3.2-4.3-19.3-25.8-22.9-30.6
		c-9.8-9.3-14.1-23.6-5.1-35C381.2-113.5,455-200.7,458.8-205.3L458.8-205.3z"/>
</g>
<g>
	<polygon style="fill:#DEEBF9;" points="238.5,-25.9 234,-39.3 326.6,-80.2 	"/>
	<path style="fill:#44515E;" d="M238.5-25.9c-0.1-0.3-4.8-13.3-4.9-13.6c29.7-13.7,62.6-28.4,92.5-41.6l0.9,1.7
		C302-63.8,264.2-41.2,238.5-25.9L238.5-25.9z M238.5-25.9c25.2-16,62.5-39.7,87.5-55.2l0.9,1.7c-29.8,13.2-62.8,27.5-92.9,40.2
		l0.1-0.3L238.5-25.9L238.5-25.9z"/>
</g>
<path style="fill:#44515E;" d="M59.4-10.1c-0.1-5.8,9-5.8,8.9,0C68.3-4.4,59.3-4.4,59.4-10.1z"/>
<path style="fill:#DEEBF9;" d="M134-62.4c74.9,13.1,28.3-32.8,42.8-67.9c0.5-2.2,0.6-3.5-1.2,0.1C158.5-98.5,181.2-76,134-62.4z"/>
<path style="fill:#DEEBF9;" d="M197.4-32.8c0,0-9.3,2.7-7.2,9.4c3.1,27.2,56.8,60.9,73.6,73.3c-41-16-69.6-23.1-94.9-69.7
	C169.2-24.3,202.1-45,197.4-32.8z"/>
<path style="fill:#DEEBF9;" d="M30,1.4c0.4,8.7-27.6,8.7-27.3,0C2.3-7.3,30.3-7.3,30,1.4z"/>
</svg>
