<?xml version="1.0" encoding="utf-8"?>
<!-- Generator: Adobe Illustrator 27.3.1, SVG Export Plug-In . SVG Version: 6.00 Build 0)  -->
<svg version="1.1" id="Layer_1" xmlns="http://www.w3.org/2000/svg" xmlns:xlink="http://www.w3.org/1999/xlink" x="0px" y="0px"
	 viewBox="0 0 612 792" style="enable-background:new 0 0 612 792;" xml:space="preserve">
<path style="fill:#70808E;" d="M492.328,186.099c-7.347-8.117-7.815-20.288-1.122-28.963l89.198-105.593
	c0,0-120.479,87.231-120.479,87.231c-23.431,17.356-53.169,23.596-81.913,22.544c-21.681-0.733-35.842-1.227-42.092-1.467
	c-1.327,0.335-6.946-7.19-9.085-40.24l0.013-0.01c-1.236-19.878-1.011-29.94-1-36.352c-13.429,3.222-27.665,26.067-32.229,33.849
	c-7.619,12.885-15.76,30.309-15.76,40.567c0,3.962-1.16,8.333-3.447,12.99c-6.385,14.211-21.024,21.953-35.483,26.911
	c-29.169,11.749-59.332,23.897-82.982,35.192c-29.218,13.953-41.706,23.271-41.759,31.156c-0.14,21.038,20.516,23.425,40.492,25.733
	c6.775,0.783,13.76,1.59,20.256,3.065l-18.954,13.316c-2.516,1.94-3.407,5.232-2.239,8.183
	c4.007,14.988,91.547-18.461,99.783-21.133l1.623,11.822l19.719,24.378l30.082-49.094l8.622,9.911l72.927,28.582l-28.771-80.829
	l84.583-52.171l79.384,39.1C519.097,221.497,494.655,188.063,492.328,186.099z"/>
<g>
	<polygon style="fill:#ACBBCC;" points="255.821,284.05 258.456,303.245 274.977,323.67 315.478,257.574 	"/>
	<path style="fill:#44515E;" d="M275.09,325.4l-17.587-21.743l-2.774-20.216l63.281-28.084L275.09,325.4z M259.408,302.833
		l15.456,19.108l38.082-62.149l-56.032,24.867L259.408,302.833z"/>
</g>
<g>
	<path style="fill:#EDEDED;" d="M304.339,265.776c-28.47,11.206-72.115,44.71-97.31,9.695l85.46-29.085L304.339,265.776z"/>
	<path style="fill:#232323;" d="M239.305,291.987c-12.756,0.016-25.305-6.015-33.089-16.767l86.492-29.437l12.352,20.213
		C293.044,270.377,252.078,293.409,239.305,291.987z M207.849,275.721c25.002,33.647,67.997,0.751,95.77-10.165l-11.346-18.567
		L207.849,275.721z"/>
</g>
<g>
	<path style="fill:#DEEBF9;" d="M198.923,279.422l-40.768,28.641c-2.993,2.525-1.079,7.409,2.832,7.22
		c60.85-10.39,123.544-31.986,165.954-67.909l0.344-1.339l-103.537-33.853l-43.533,28.697
		C196.455,250.688,203.602,265.412,198.923,279.422z"/>
	<path style="fill:#44515E;" d="M198.923,279.422c0.034-0.025-40.642,29.083-40.49,28.97c-12.338,18.876,78.135-13.791,84.816-15.83
		c29.781-10.956,58.92-25.034,83.05-45.922c0,0-0.302,0.49-0.302,0.49s0.346-1.338,0.346-1.338s0.64,1.166,0.64,1.166
		c-29.372-9.664-74.417-24.414-103.452-34.111c0,0,0.603-0.081,0.603-0.081c-14.568,9.479-29.092,19.025-43.696,28.449
		c0,0-0.014-0.683-0.014-0.683C193.703,248.477,204.476,263.531,198.923,279.422L198.923,279.422z M198.923,279.422
		c5.24-15.842-5.624-30.557-18.917-38.197c0,0-0.543-0.327-0.543-0.327c14.685-9.891,29.454-19.654,44.177-29.488
		c29.16,9.266,74.514,24.185,103.947,33.699c0,0,0.865,0.282,0.865,0.282c-0.178,0.666-0.472,1.863-0.642,2.517
		c-43.035,36.591-98.931,53.63-153.134,65.85c-5.437,0.312-18.431,6.105-18.392-3.2
		C153.564,309.067,198.569,280.265,198.923,279.422L198.923,279.422z"/>
</g>
<g>
	<path style="fill:#ACBBCC;" d="M490.554,187.693c-8.244-9.108-8.905-22.971-1.232-32.864l73.364-86.848
		c0,0-100.552,72.804-100.552,72.804c-23.978,17.783-54.335,24.179-83.774,23.112c-43.935-4.45-49.371,13.344-53.806-41.111
		l-10.129,2.814l9.778-7.789c-1.03-16.145-0.936-30.481-0.936-30.481c-15.033,6.22-41.96,52.81-41.96,69.916
		c-0.784,17.296-14.44,32.04-30.037,38.342c-90.523,35.468-206.58,79.865-73.195,94.268c23.765,6.011,59.567-10.307,78.526-18.728
		l-0.823-18.918l-8.275-12.758l10.689,12.068l2.198,17.861l6.047-3.452l-0.745-17.141l-8.275-12.758l10.689,12.068l1.941,15.77
		l5.375-3.068l-0.669-15.39l-8.275-12.758l10.689,12.068l1.735,14.094l8.182-4.671l28.716,33.009l66.113,25.912l-19.243-54.061
		l-23.575-0.555l22.3-3.028l-6.859-19.27l88.06-54.315l69.663,34.312C509.497,212.602,493.359,190.395,490.554,187.693z"/>
	<path style="fill:#44515E;" d="M562.687,67.981c0,0-73.364,86.848-73.364,86.848c-7.673,9.892-7.012,23.756,1.232,32.864
		c2.676,2.741,19.074,24.933,21.705,28.453l-69.663-34.312l-88.06,54.315l6.859,19.27l-22.3,3.028l23.575,0.555l19.243,54.061
		L315.8,287.152l-28.716-33.009l-8.182,4.671l-1.735-14.094l-10.689-12.068l8.275,12.758l0.669,15.39l-5.375,3.068l-1.941-15.77
		l-10.689-12.068l8.275,12.758l0.745,17.141l-6.047,3.452l-2.198-17.861l-10.689-12.068l8.275,12.758l0.823,18.918
		c-19.108,8.227-53.053,24.609-78.528,18.726c-26.341-6.665-60.606-1.053-60.438-26.339c0.1-15.038,74.373-43.998,133.634-67.927
		c11.366-4.589,20.881-13.026,26.283-24.029c2.206-4.493,3.754-9.397,3.754-14.312c0-17.106,26.927-63.696,41.96-69.916
		c0,0-0.094,14.336,0.936,30.481l-9.778,7.79l10.129-2.814c1.499,19.317,4.733,39.375,11.7,39.643
		c9.11,0.281,32.792,1.299,47.8,1.564c27.599,0.144,55.66-6.596,78.08-23.209C462.135,140.785,562.687,67.981,562.687,67.981
		 M574.799,56.743c-2.792,2.089-106.914,77.361-113.836,82.422c-22.065,16.328-49.763,22.984-76.908,22.829
		c-15.095-0.27-38.724-1.284-47.723-1.562c-1.887,1.011-7.782-7.526-9.971-40.222c-0.493,0.137-2.557,0.71-3.006,0.835
		c0.577-0.46,2.364-1.883,2.912-2.319c-1.168-18.621-0.984-30.055-0.979-34.395c-22.601,10.039-44.087,53.24-45.981,72.915
		c-0.665,15.937-13.707,30.505-28.784,36.488c-34.562,16.202-126.134,44.262-134.888,69.765
		c-0.133,20.94,21.998,22.681,39.609,24.736c45.06,9.927,64.91,1.492,103.417-15.832l-0.048-1.115l0.163,1.32
		c2.286-1.305,7.337-4.188,9.657-5.512c2.155-1.23,6.67-3.807,8.854-5.054v0c1.723-0.984,7.55-4.31,9.368-5.347
		c0.321,0.369,27.666,31.802,27.961,32.141c0.422,0.166,66.114,25.913,66.572,26.092c-0.001,0,4.085,1.601,4.085,1.601
		c-0.721-2.025-20.082-56.418-21.163-59.457l0,0c-0.17-0.478-6.713-18.86-7.143-20.068l85.742-52.886
		c3.852,1.897,74.723,36.804,76.144,37.504c-3.16-4.26-19.332-25.841-22.852-30.574c-9.772-9.269-14.134-23.611-5.117-34.96
		C497.239,148.506,570.992,61.286,574.799,56.743L574.799,56.743z"/>
</g>
<g>
	<polygon style="fill:#DEEBF9;" points="354.536,236.149 350.007,222.682 442.596,181.834 	"/>
	<path style="fill:#44515E;" d="M354.536,236.149c-0.112-0.312-4.759-13.302-4.87-13.61c29.718-13.721,62.618-28.4,92.533-41.603
		c0,0,0.911,1.733,0.911,1.733C417.983,198.18,380.177,220.823,354.536,236.149L354.536,236.149z M354.536,236.149
		c25.199-16.035,62.458-39.67,87.544-55.15c0,0,0.911,1.733,0.911,1.733c-29.832,13.155-62.792,27.534-92.875,40.199
		c0,0,0.148-0.336,0.148-0.336S354.536,236.149,354.536,236.149L354.536,236.149z"/>
</g>
<path style="fill:#44515E;" d="M175.365,251.855c-0.084-5.771,8.981-5.771,8.896,0C184.345,257.626,175.28,257.626,175.365,251.855z
	"/>
<path style="fill:#DEEBF9;" d="M249.956,199.612c74.867,13.051,28.298-32.836,42.766-67.938c0.536-2.211,0.625-3.537-1.185,0.083
	C274.536,163.492,297.234,186.033,249.956,199.612z"/>
<path style="fill:#DEEBF9;" d="M313.394,229.165c0,0-9.316,2.663-7.195,9.409c3.07,27.156,56.772,60.917,73.611,73.334
	c-40.954-15.967-69.641-23.076-94.918-69.738C285.167,237.744,318.098,216.989,313.394,229.165z"/>
<path style="fill:#DEEBF9;" d="M145.965,263.382c0.38,8.71-27.639,8.711-27.257-0.001
	C118.328,254.671,146.348,254.671,145.965,263.382z"/>
</svg>
