<?xml version="1.0" encoding="utf-8"?>
<!-- Generator: Adobe Illustrator 27.3.1, SVG Export Plug-In . SVG Version: 6.00 Build 0)  -->
<svg version="1.1" id="Layer_1" xmlns="http://www.w3.org/2000/svg" xmlns:xlink="http://www.w3.org/1999/xlink" x="0px" y="0px"
	 viewBox="0 0 612 792" style="enable-background:new 0 0 612 792;" xml:space="preserve">
<path style="fill:#70808E;" d="M138.162,281.152c7.347-8.117,7.815-20.288,1.122-28.963L50.085,146.596
	c0,0,120.479,87.231,120.479,87.231c23.431,17.356,53.169,23.596,81.913,22.544c21.681-0.733,35.842-1.227,42.092-1.467
	c1.327,0.335,6.946-7.19,9.085-40.24l-0.013-0.01c1.236-19.878,1.011-29.94,1-36.352c13.429,3.222,27.665,26.067,32.229,33.849
	c7.619,12.885,15.76,30.309,15.76,40.567c0,3.962,1.16,8.333,3.447,12.99c6.385,14.211,21.024,21.953,35.483,26.911
	c29.169,11.749,59.332,23.897,82.982,35.192c29.218,13.953,41.706,23.271,41.759,31.156c0.14,21.038-20.516,23.425-40.492,25.733
	c-6.775,0.783-13.76,1.59-20.256,3.065l18.954,13.316c2.516,1.94,3.407,5.232,2.239,8.183
	c-4.007,14.988-91.547-18.461-99.783-21.133l-1.623,11.822l-19.719,24.378l-30.082-49.094l-8.622,9.911l-72.927,28.582
	l28.771-80.829l-84.583-52.171l-79.384,39.1C111.393,316.55,135.835,283.116,138.162,281.152z"/>
<g>
	<polygon style="fill:#ACBBCC;" points="374.668,379.103 372.034,398.298 355.513,418.724 315.012,352.627 	"/>
	<path style="fill:#44515E;" d="M312.48,350.409l63.281,28.084l-2.774,20.216L355.4,420.453L312.48,350.409z M373.576,379.712
		l-56.032-24.867l38.082,62.149l15.456-19.108L373.576,379.712z"/>
</g>
<g>
	<path style="fill:#EDEDED;" d="M326.151,360.83c28.47,11.206,72.115,44.71,97.31,9.695L338,341.44L326.151,360.83z"/>
	<path style="fill:#232323;" d="M325.43,361.05l12.352-20.213l86.492,29.437c-7.784,10.752-20.333,16.784-33.089,16.767
		C378.412,388.463,337.445,365.431,325.43,361.05z M338.218,342.042l-11.346,18.567c27.772,10.916,70.767,43.813,95.77,10.165
		L338.218,342.042z"/>
</g>
<g>
	<path style="fill:#DEEBF9;" d="M431.567,374.476l40.768,28.641c2.993,2.525,1.079,7.409-2.832,7.22
		c-60.85-10.39-123.544-31.986-165.954-67.909l-0.344-1.339l103.537-33.853l43.533,28.697
		C434.035,345.741,426.888,360.466,431.567,374.476z"/>
	<path style="fill:#44515E;" d="M431.567,374.476c-5.554-15.891,5.22-30.946,18.499-38.888c0,0-0.014,0.683-0.014,0.683
		c-14.604-9.425-29.128-18.97-43.696-28.449c0,0,0.603,0.081,0.603,0.081c-29.036,9.697-74.08,24.447-103.452,34.111
		c0,0,0.64-1.166,0.64-1.166s0.346,1.338,0.346,1.338s-0.302-0.49-0.302-0.49c24.13,20.887,53.269,34.966,83.05,45.922
		c6.68,2.039,97.153,34.706,84.816,15.83C472.209,403.558,431.533,374.451,431.567,374.476L431.567,374.476z M431.567,374.476
		c0.354,0.843,45.358,29.645,42.638,31.137c0.039,9.305-12.955,3.512-18.392,3.2c-54.203-12.221-110.099-29.259-153.134-65.85
		c-0.17-0.654-0.464-1.851-0.642-2.517c0,0,0.866-0.281,0.865-0.282c29.433-9.514,74.787-24.432,103.947-33.699
		c14.723,9.833,29.492,19.597,44.177,29.488c0,0-0.543,0.326-0.543,0.327C437.191,343.918,426.326,358.634,431.567,374.476
		L431.567,374.476z"/>
</g>
<g>
	<path style="fill:#ACBBCC;" d="M139.935,282.746c8.244-9.108,8.905-22.971,1.232-32.864l-73.364-86.848
		c0,0,100.552,72.804,100.552,72.804c23.978,17.783,54.335,24.179,83.774,23.112c43.935-4.45,49.371,13.344,53.806-41.111
		l10.129,2.814l-9.778-7.789c1.03-16.145,0.936-30.481,0.936-30.481c15.033,6.22,41.96,52.81,41.96,69.916
		c0.784,17.296,14.44,32.04,30.037,38.342c90.523,35.468,206.58,79.865,73.195,94.268c-23.765,6.011-59.567-10.307-78.526-18.728
		l0.823-18.918l8.275-12.758l-10.689,12.068l-2.198,17.861l-6.047-3.452l0.745-17.141l8.275-12.758l-10.689,12.068l-1.941,15.77
		l-5.375-3.068l0.669-15.39l8.275-12.758l-10.689,12.068l-1.735,14.094l-8.182-4.671l-28.716,33.009l-66.113,25.912l19.243-54.061
		l23.575-0.555l-22.3-3.028l6.859-19.27l-88.06-54.315l-69.663,34.312C120.993,307.655,137.131,285.448,139.935,282.746z"/>
	<path style="fill:#44515E;" d="M67.803,163.035c0,0,100.552,72.804,100.552,72.803c22.42,16.613,50.481,23.353,78.08,23.209
		c15.008-0.265,38.69-1.283,47.8-1.564c6.967-0.268,10.201-20.326,11.7-39.643l10.129,2.814l-9.778-7.79
		c1.03-16.145,0.936-30.481,0.936-30.481c15.033,6.22,41.96,52.81,41.96,69.916c0,4.915,1.548,9.819,3.754,14.312
		c5.402,11.003,14.917,19.44,26.283,24.029c59.261,23.929,133.534,52.889,133.634,67.927c0.168,25.286-34.097,19.674-60.438,26.339
		c-25.474,5.882-59.419-10.499-78.528-18.726l0.823-18.918l8.275-12.758l-10.689,12.068l-2.198,17.861l-6.047-3.452l0.745-17.141
		l8.275-12.758l-10.689,12.068l-1.941,15.771l-5.375-3.068l0.669-15.39l8.275-12.758l-10.689,12.068l-1.735,14.094l-8.182-4.671
		l-28.716,33.009l-66.113,25.912l19.243-54.061l23.575-0.555l-22.3-3.028l6.859-19.27l-88.06-54.315l-69.663,34.312
		c2.631-3.52,19.029-25.712,21.705-28.453c8.244-9.108,8.905-22.971,1.232-32.864C141.167,249.883,67.803,163.035,67.803,163.035
		 M55.691,151.796c3.807,4.543,77.56,91.764,83.92,99.345c9.018,11.349,4.655,25.69-5.117,34.96
		c-3.52,4.733-19.692,26.314-22.852,30.574c1.421-0.7,72.292-35.606,76.144-37.504l85.742,52.886
		c-0.43,1.208-6.973,19.59-7.143,20.068l0,0c-1.082,3.039-20.443,57.432-21.163,59.457c0,0,4.085-1.601,4.085-1.601
		c0.458-0.18,66.151-25.926,66.572-26.092c0.295-0.339,27.64-31.772,27.961-32.141c1.818,1.038,7.645,4.364,9.368,5.347v0
		c2.184,1.247,6.698,3.824,8.854,5.054c2.319,1.324,7.37,4.207,9.657,5.512l0.163-1.32l-0.048,1.115
		c38.507,17.324,58.356,25.759,103.417,15.832c17.611-2.055,39.742-3.796,39.609-24.736
		c-8.754-25.504-100.326-53.563-134.888-69.765c-15.077-5.983-28.119-20.551-28.784-36.488
		c-1.894-19.675-23.38-62.876-45.981-72.915c0.005,4.34,0.19,15.774-0.979,34.395c0.547,0.436,2.334,1.859,2.912,2.319
		c-0.45-0.125-2.513-0.698-3.006-0.835c-2.189,32.696-8.084,41.233-9.971,40.222c-8.999,0.278-32.627,1.292-47.723,1.562
		c-27.145,0.155-54.843-6.501-76.908-22.829C162.605,229.157,58.482,153.885,55.691,151.796L55.691,151.796z"/>
</g>
<g>
	<polygon style="fill:#DEEBF9;" points="275.953,331.203 280.483,317.735 187.894,276.887 	"/>
	<path style="fill:#44515E;" d="M275.953,331.203c-25.641-15.327-63.447-37.97-88.575-53.48c0,0,0.911-1.733,0.911-1.733
		c29.915,13.203,62.815,27.882,92.533,41.603C280.712,317.901,276.065,330.891,275.953,331.203L275.953,331.203z M275.953,331.203
		c0,0,4.271-13.554,4.271-13.554s0.148,0.336,0.148,0.336c-30.083-12.665-63.043-27.044-92.875-40.199c0,0,0.911-1.733,0.911-1.733
		C213.495,291.533,250.754,315.167,275.953,331.203L275.953,331.203z"/>
</g>
<path style="fill:#44515E;" d="M455.125,346.908c0.084-5.771-8.981-5.771-8.896,0C446.144,352.679,455.21,352.679,455.125,346.908z"
	/>
<path style="fill:#DEEBF9;" d="M380.533,294.665c-74.867,13.051-28.298-32.836-42.766-67.938c-0.536-2.211-0.625-3.537,1.185,0.083
	C355.953,258.546,333.255,281.086,380.533,294.665z"/>
<path style="fill:#DEEBF9;" d="M317.096,324.219c0,0,9.316,2.663,7.195,9.409c-3.07,27.156-56.772,60.917-73.611,73.334
	c40.954-15.967,69.641-23.076,94.918-69.738C345.323,332.798,312.391,312.043,317.096,324.219z"/>
<path style="fill:#DEEBF9;" d="M484.524,358.435c-0.38,8.71,27.639,8.711,27.257-0.001
	C512.161,349.725,484.142,349.725,484.524,358.435z"/>
</svg>
