<?xml version="1.0" encoding="utf-8"?>
<!-- Generator: Adobe Illustrator 27.3.1, SVG Export Plug-In . SVG Version: 6.00 Build 0)  -->
<svg version="1.1" id="Layer_1" xmlns="http://www.w3.org/2000/svg" xmlns:xlink="http://www.w3.org/1999/xlink" x="0px" y="0px"
	 viewBox="0 0 612 792" style="enable-background:new 0 0 612 792;" xml:space="preserve">
<g>
	<path style="fill:#5FE084;" d="M106.2-7.2c1-4.3,1.4-8.8,1.2-13.4c-1.2-25.1-21.5-45.5-46.6-46.8c-1.9-0.1-3.7-0.1-5.6,0
		c-15.1,0.9-30.1-5-39.5-16.9C4.1-99-15.6-106.8-36.6-101.2C-53.2-96.8-66.2-83.6-70.5-67c-1.9,7.3-2.2,14.5-1.1,21.1
		c2.3,14.1-0.2,28.7-7.2,41.2C-85.5,7.2-89,21-88.4,35.7c1.6,38.6,32.7,70.1,71.3,72.2c10.5,0.6,20.6-1,29.9-4.3
		c14.7-5.3,30.9-5.1,45.1,1.4c7,3.2,14.9,4.8,23.3,4.3c24.7-1.4,44.8-21.4,46.3-46.1c0.8-13.6-3.9-26.1-12.1-35.5
		C106.9,18.1,103.3,5.2,106.2-7.2z"/>
	<path style="fill:#125B12;" d="M105.4-7.4c5.1-21.9-6.7-44.1-27.6-52.1C69.6-63,60.9-63,52.3-61.9c0,0-3.1,0.1-3.1,0.1
		c-9.4,0-18.8-2.5-26.9-7.4c-3.6-2.3-7-5-9.9-8.1c-3.6-4.3-7.9-9-12.7-11.9c-23.8-15.6-57.8-5.3-66.8,22.5C-69.3-60.2-70-53-69-46.1
		c1.1,7.6,0.9,15.4-0.5,22.9c-0.7,3.8-1.7,7.5-3.1,11.1c-1.3,3.5-3.1,7.2-4.8,10.4c-6.5,12.7-8.5,27.4-6.4,41.2
		c6.5,42.8,51.2,71.6,92.4,56.6c16.6-6.5,35.7-6.7,52.1,0.8c17.5,8.6,38.5,3.8,51.4-10.7c7.9-8.6,12-20.4,11.4-32
		c-0.4-8.6-3.5-17.3-8.7-24.4c-1-1.4-2.4-3.1-3.3-4.6C105.2,15.8,102.7,3.7,105.4-7.4L105.4-7.4z M106.9-7.1
		c-2.4,10.6,0.4,22.1,7.1,30.5c1.1,1.3,2.4,2.9,3.6,4.1c4,4.3,7.1,9.2,9.5,14.5c5.8,12.8,6.1,28.1,1,41.2
		c-6.2,15.8-20,28.1-36.5,32.5c-10.4,2.7-21.6,2.5-31.9-0.9c-2-0.6-3.9-1.5-5.9-2.3c-4.3-1.8-8.9-3.1-13.6-3.6
		c-8.8-1.1-17.9,0.2-26.2,3.3c-16.6,5.4-34.8,5.3-51.3-0.1c-39.6-12.6-63-54.7-53.1-94.8c1.8-7.5,4.6-14.7,8.3-21.4
		c1.9-3.3,3.5-6.2,4.8-9.6c4-9.9,5.1-20.9,3.2-31.4c-1.4-7.6-1.2-15.6,0.6-23.3c4-17.8,17.9-33,35.5-38.5c23-7.2,46.6,0.8,60.8,20.1
		c6.8,7.8,16.7,12.6,27,13.8c1.2,0.1,3.7,0.3,4.9,0.3c9.1,0.1,18.3,2.4,26,6.9C101.3-54.3,112.3-30,106.9-7.1L106.9-7.1z"/>
</g>
<path style="fill:#B8FFCC;" d="M71.1-13.8c0.7-2.4,1-4.8,0.8-7.4c-0.8-13.8-14.7-25-31.8-25.7c-1.3-0.1-2.6,0-3.8,0
	c-10.3,0.5-20.5-2.8-27-9.3c-7.9-8-21.3-12.3-35.7-9.2c-11.3,2.4-20.2,9.7-23.2,18.8c-1.3,4-1.5,7.9-0.7,11.6
	c1.6,7.8-0.1,15.8-4.9,22.6c-4.6,6.5-7,14.1-6.6,22.1C-60.6,31-39.4,48.2-13,49.4c7.2,0.3,14.1-0.6,20.4-2.4
	c10-2.9,21.1-2.8,30.8,0.8c4.8,1.8,10.2,2.6,15.9,2.4c16.9-0.8,30.6-11.7,31.6-25.3c0.6-7.5-2.7-14.3-8.3-19.5
	C71.7,0.1,69.2-7,71.1-13.8z"/>
<ellipse style="fill:#B8FFCC;" cx="4.3" cy="70.3" rx="15.8" ry="6.7"/>
<ellipse style="fill:#B8FFCC;" cx="32.3" cy="69.4" rx="7.6" ry="4.2"/>
<ellipse style="fill:#B8FFCC;" cx="94.4" cy="27.8" rx="4.5" ry="6.7"/>
<ellipse style="fill:#B8FFCC;" cx="105.4" cy="32.9" rx="2.2" ry="4.2"/>
</svg>
