<?xml version="1.0" encoding="utf-8"?>
<!-- Generator: Adobe Illustrator 27.2.0, SVG Export Plug-In . SVG Version: 6.00 Build 0)  -->
<svg version="1.1" id="Layer_2_00000080901917458397572370000008857953416247018399_"
	 xmlns="http://www.w3.org/2000/svg" xmlns:xlink="http://www.w3.org/1999/xlink" x="0px" y="0px" viewBox="0 0 216.2 91.8"
	 style="enable-background:new 0 0 216.2 91.8;" xml:space="preserve">
<style type="text/css">
	.st0{fill:#79E2C1;}
</style>
<rect x="36.2" y="-3.6" transform="matrix(0.9999 -1.394291e-02 1.394291e-02 0.9999 3.230127e-02 0.8936)" class="st0" width="55.8" height="3.4"/>
<g id="Layer_1-2">
	<g>
		<path class="st0" d="M-10.5-41.7c0-0.9,0.8-1.7,1.7-1.7L97.8-45c0.9,0.1,1.7,0.8,1.7,1.7s-0.8,1.7-1.7,1.7L-8.8-40l0,0
			C-9.7-40-10.5-40.7-10.5-41.7z"/>
		<ellipse transform="matrix(0.8898 -0.4563 0.4563 0.8898 24.9686 49.5103)" class="st0" cx="115" cy="-26.9" rx="10.7" ry="3.8"/>
		
			<ellipse transform="matrix(0.8898 -0.4563 0.4563 0.8898 11.3447 -9.3507)" class="st0" cx="-13.7" cy="-28.2" rx="10.7" ry="3.8"/>
	</g>
</g>
</svg>
